
<svg version="1.0" xmlns="http://www.w3.org/2000/svg"
 width="640.000000pt" height="640.000000pt" viewBox="0 0 640.000000 640.000000"
 preserveAspectRatio="xMidYMid meet">

<g transform="translate(0.000000,640.000000) scale(0.100000,-0.100000)"
fill="#000000" stroke="none">
<path d="M1809 6133 l-115 -4 -18 -29 c-35 -60 -90 -253 -57 -202 5 9 32 15
72 16 66 2 93 11 84 26 -3 5 -1 11 5 15 6 3 13 0 16 -8 3 -8 20 -18 37 -21 18
-4 42 -15 55 -25 18 -16 21 -26 17 -62 -10 -78 -56 -103 -213 -115 -58 -4 -87
-2 -97 6 -11 10 -15 10 -15 1 0 -7 -4 -10 -9 -7 -5 3 -12 -1 -15 -10 -3 -9
-13 -14 -21 -11 -10 4 -18 -9 -30 -51 -8 -31 -21 -75 -28 -97 -6 -22 -12 -92
-12 -156 0 -90 -3 -115 -13 -112 -8 4 -10 0 -5 -13 4 -10 2 -15 -3 -11 -11 6
-120 -109 -198 -210 -26 -35 -50 -63 -52 -63 -2 0 -15 19 -28 43 -20 33 -27
63 -32 132 -4 51 -10 81 -14 70 -6 -18 -7 -18 -12 2 -3 11 -2 27 3 34 5 8 9
10 10 4 0 -5 14 37 30 95 24 83 31 133 36 238 5 114 4 132 -9 132 -20 0 -34
50 -17 61 10 6 10 11 1 21 -12 15 -13 60 -1 52 9 -5 19 21 19 50 0 12 6 28 13
35 10 10 9 11 -4 6 -10 -4 -16 0 -16 10 0 9 6 14 14 11 8 -3 12 -2 9 3 -3 5 8
14 26 20 17 6 29 13 26 16 -5 5 -48 -10 -262 -88 l-29 -11 6 -75 c4 -42 20
-148 37 -236 17 -88 33 -215 37 -281 l6 -122 -61 -128 c-83 -178 -95 -222
-173 -639 -27 -144 -32 -204 -38 -390 -6 -213 -7 -222 -34 -280 -61 -130 -127
-169 -368 -219 -177 -37 -258 -85 -309 -185 -15 -32 -35 -63 -44 -70 -14 -12
-16 -153 -16 -1457 l0 -1444 73 50 c105 71 123 94 163 206 19 54 40 104 46
109 7 7 8 -38 3 -144 -4 -84 -4 -259 0 -387 l7 -234 1574 0 1574 0 0 173 0
172 33 19 c17 10 76 41 131 68 54 27 161 90 237 138 76 49 198 123 271 166 73
42 140 82 148 89 21 18 442 251 577 319 115 59 176 111 189 161 9 35 -83 197
-116 205 -16 4 -37 31 -70 89 -26 45 -82 133 -124 194 -88 129 -127 186 -262
387 -216 321 -254 380 -334 509 -46 74 -115 180 -153 235 -39 56 -104 151
-146 211 -41 61 -97 139 -124 174 -26 35 -65 98 -86 140 -83 163 -167 218
-376 246 -453 60 -438 54 -430 144 4 47 3 51 -5 25 -12 -38 -56 -59 -103 -50
-21 4 -59 -1 -110 -16 -69 -19 -82 -21 -120 -9 -23 7 -57 15 -74 18 -50 8 -43
-22 21 -89 75 -78 122 -101 201 -96 l62 4 -9 -41 c-22 -99 -76 -155 -175 -180
-51 -13 -74 -14 -122 -5 -66 12 -147 45 -201 82 -19 13 -62 39 -95 58 -33 18
-62 36 -65 39 -3 3 -25 16 -50 29 -25 12 -37 17 -26 10 10 -7 33 -28 51 -45
18 -18 38 -33 46 -34 40 -1 -104 -51 -230 -79 l-143 -32 -40 44 c-103 113
-242 326 -298 457 l-28 65 27 50 c15 28 33 71 40 95 7 24 24 54 38 67 15 14
22 28 17 35 -5 9 -2 10 9 6 10 -3 17 -3 17 1 -1 19 -23 37 -81 66 -53 26 -68
39 -86 76 -13 24 -23 51 -23 60 0 9 31 59 70 112 66 91 69 98 69 149 -1 40 6
65 25 99 16 28 26 60 26 85 0 30 8 50 29 75 15 19 42 62 59 95 16 33 58 98 91
145 33 47 80 112 103 145 23 33 87 116 143 185 55 69 115 146 132 171 18 25
49 61 70 79 21 18 70 62 108 99 39 36 99 92 134 124 35 32 61 59 60 61 -14 11
-103 39 -161 51 -67 14 -114 15 -399 8z m198 -129 c-3 -3 -12 -4 -19 -1 -8 3
-5 6 6 6 11 1 17 -2 13 -5z m60 -71 c-3 -10 -5 -2 -5 17 0 19 2 27 5 18 2 -10
2 -26 0 -35z m-70 15 c-3 -8 -6 -5 -6 6 -1 11 2 17 5 13 3 -3 4 -12 1 -19z
m-249 5 c-10 -2 -26 -2 -35 0 -10 3 -2 5 17 5 19 0 27 -2 18 -5z m309 -65 c-3
-8 -6 -5 -6 6 -1 11 2 17 5 13 3 -3 4 -12 1 -19z m-37 -33 c7 -9 8 -15 2 -15
-5 0 -12 7 -16 15 -3 8 -4 15 -2 15 2 0 9 -7 16 -15z m-63 -37 c-3 -8 -6 -5
-6 6 -1 11 2 17 5 13 3 -3 4 -12 1 -19z m30 0 c-3 -8 -6 -5 -6 6 -1 11 2 17 5
13 3 -3 4 -12 1 -19z m-123 -109 c-7 -12 -94 -12 -94 0 0 11 54 18 82 12 10
-2 15 -7 12 -12z m-74 -23 c0 -2 -7 -7 -16 -10 -8 -3 -12 -2 -9 4 6 10 25 14
25 6z m-129 -29 c-13 -13 -26 -3 -16 12 3 6 11 8 17 5 6 -4 6 -10 -1 -17z m87
-12 c-4 -30 -23 -34 -21 -5 1 29 2 30 14 30 6 0 9 -11 7 -25z"/>
<path d="M2590 5626 c-150 -34 -316 -108 -461 -208 -93 -63 -259 -228 -413
-408 -49 -58 -129 -146 -178 -196 -56 -57 -87 -96 -83 -105 3 -8 26 -28 52
-46 73 -51 653 -611 653 -631 0 -26 26 -65 53 -78 35 -19 188 -10 289 16 91
24 146 58 245 153 94 90 96 90 128 4 9 -27 23 -51 30 -53 17 -7 118 33 184 72
31 18 78 54 105 80 53 52 166 201 166 220 0 14 -28 39 -45 39 -7 0 -53 39
-103 87 -89 86 -90 87 -85 127 10 75 -3 80 -49 15 -22 -33 -61 -83 -86 -112
-51 -60 -50 -77 2 -37 20 15 36 23 36 17 0 -6 -4 -14 -10 -17 -17 -10 -12 -22
35 -79 25 -31 45 -59 45 -63 0 -5 -30 -19 -67 -31 -38 -13 -90 -37 -117 -54
-75 -46 -93 -50 -121 -32 -29 19 -114 13 -265 -18 -52 -10 -130 -26 -173 -33
l-78 -14 -132 92 c-255 177 -386 272 -387 280 0 4 9 7 21 7 41 0 134 54 203
119 84 78 122 107 196 148 30 16 97 56 148 87 184 112 232 130 402 157 92 14
102 19 167 81 36 35 59 51 78 51 32 0 76 -41 81 -74 2 -13 6 -35 10 -48 6 -19
4 -22 -7 -16 -11 7 -12 6 -2 -6 7 -9 12 -39 12 -68 -1 -28 1 -55 5 -58 3 -3 6
24 6 62 0 61 3 71 30 102 37 41 39 87 9 168 -25 68 -103 186 -156 237 -74 71
-224 97 -373 64z"/>
<path d="M3081 4929 c1 -30 5 -65 9 -79 4 -14 5 8 2 50 -6 89 -12 106 -11 29z"/>
<path d="M1415 4615 c7 -31 12 -41 19 -34 2 2 -3 18 -11 34 l-14 30 6 -30z"/>
<path d="M2290 4594 c-97 -18 -93 -29 13 -38 45 -4 143 -21 217 -38 181 -41
218 -45 227 -22 10 27 -37 58 -120 78 -69 17 -282 30 -337 20z"/>
<path d="M2862 4470 c-12 -12 -22 -26 -22 -33 0 -7 4 -6 10 3 8 12 10 11 10
-7 0 -15 6 -23 18 -24 60 -4 92 -3 92 2 0 3 11 11 25 17 30 14 33 32 6 32 -11
0 -22 8 -24 18 -4 16 -5 16 -6 0 -1 -15 -11 -18 -52 -18 -45 0 -50 2 -39 15
18 22 7 18 -18 -5z"/>
<path d="M2566 4411 c-34 -65 -119 -78 -221 -35 -70 30 -90 34 -90 17 0 -25
64 -80 108 -93 84 -23 207 33 222 101 9 42 0 47 -19 10z"/>
<path d="M1520 4048 c32 -59 145 -198 161 -198 6 0 9 4 7 9 -3 9 -190 241
-194 241 -1 0 11 -24 26 -52z"/>
<path d="M2896 3995 c-10 -40 -42 -65 -82 -65 -32 0 -34 -2 -20 -15 14 -14 19
-14 43 -1 16 7 36 22 45 32 16 19 35 74 25 74 -3 0 -8 -11 -11 -25z"/>
<path d="M2631 3946 c10 -9 79 -14 74 -5 -4 5 -22 9 -42 9 -20 0 -34 -2 -32
-4z"/>
<path d="M4275 770 c12 -43 67 -148 93 -176 10 -10 48 -59 86 -109 110 -145
104 -129 -18 44 -44 63 -100 149 -124 190 -24 42 -41 65 -37 51z"/>
<path d="M3616 400 c4 -14 20 -52 36 -85 15 -33 25 -49 22 -36 -4 13 -19 52
-35 85 -16 34 -26 50 -23 36z"/>
<path d="M4550 340 c6 -11 13 -20 16 -20 2 0 0 9 -6 20 -6 11 -13 20 -16 20
-2 0 0 -9 6 -20z"/>
<path d="M4656 137 c3 -10 9 -15 12 -12 3 3 0 11 -7 18 -10 9 -11 8 -5 -6z"/>
<path d="M4700 55 c0 -5 5 -17 10 -25 5 -8 10 -10 10 -5 0 6 -5 17 -10 25 -5
8 -10 11 -10 5z"/>
<path d="M3800 26 c0 -2 8 -10 18 -17 15 -13 16 -12 3 4 -13 16 -21 21 -21 13z"/>
</g>
</svg>
